<svg width="373" height="123" viewBox="0 0 373 123" fill="none" xmlns="http://www.w3.org/2000/svg">
<path d="M28.5 34L34.8986 53.693H55.6051L38.8532 65.864L45.2519 85.557L28.5 73.386L11.7481 85.557L18.1468 65.864L1.39489 53.693H22.1014L28.5 34Z" fill="#DD5353"/>
<path d="M108.5 34L114.899 53.693H135.605L118.853 65.864L125.252 85.557L108.5 73.386L91.7481 85.557L98.1468 65.864L81.3949 53.693H102.101L108.5 34Z" fill="#DD5353"/>
<path d="M188.5 34L194.899 53.693H215.605L198.853 65.864L205.252 85.557L188.5 73.386L171.748 85.557L178.147 65.864L161.395 53.693H182.101L188.5 34Z" fill="#DD5353"/>
<path d="M268.5 34L274.899 53.693H295.605L278.853 65.864L285.252 85.557L268.5 73.386L251.748 85.557L258.147 65.864L241.395 53.693H262.101L268.5 34Z" fill="#DD5353"/>
<path d="M268.013 18.0129C276.614 9.41201 287.572 3.5547 299.502 1.18171C311.432 -1.19129 323.797 0.026618 335.035 4.68141C346.273 9.33619 355.878 17.2188 362.635 27.3324C369.393 37.446 373 49.3364 373 61.5C373 73.6635 369.393 85.5539 362.635 95.6676C355.878 105.781 346.273 113.664 335.035 118.319C323.797 122.973 311.432 124.191 299.502 121.818C287.572 119.445 276.614 113.588 268.013 104.987L311.5 61.5L268.013 18.0129Z" fill="#EAEAEA"/>
</svg>
