<svg width="133" height="123" viewBox="0 0 133 123" fill="none" xmlns="http://www.w3.org/2000/svg">
<path d="M28.5 33L34.8986 52.693H55.6051L38.8532 64.864L45.2519 84.557L28.5 72.386L11.7481 84.557L18.1468 64.864L1.39489 52.693H22.1014L28.5 33Z" fill="#DD5353"/>
<path d="M28.0129 18.0129C36.6139 9.41201 47.5721 3.5547 59.5019 1.18171C71.4318 -1.19129 83.7974 0.026618 95.035 4.68141C106.273 9.33619 115.878 17.2188 122.635 27.3324C129.393 37.446 133 49.3364 133 61.5C133 73.6635 129.393 85.5539 122.635 95.6676C115.878 105.781 106.273 113.664 95.035 118.319C83.7974 122.973 71.4318 124.191 59.502 121.818C47.5721 119.445 36.6139 113.588 28.0129 104.987L71.5 61.5L28.0129 18.0129Z" fill="#DD5353"/>
</svg>
