<svg width="150" height="224" viewBox="0 0 150 224" fill="none" xmlns="http://www.w3.org/2000/svg">
<rect width="150" height="224" fill="#A7A7A1"/>
<path d="M74.5388 88.816C78.7628 88.816 82.1761 90.0107 84.7788 92.4C87.3814 94.7893 88.6828 97.9893 88.6828 102C88.6828 106.48 87.2961 109.808 84.5228 111.984C81.7494 114.117 77.9948 115.184 73.2588 115.184L73.0668 121.264H68.0108L67.7548 111.152H69.6108C73.8348 111.152 77.1414 110.512 79.5308 109.232C81.9201 107.952 83.1148 105.541 83.1148 102C83.1148 99.44 82.3468 97.4133 80.8108 95.92C79.2748 94.4267 77.2054 93.68 74.6028 93.68C71.9574 93.68 69.8668 94.4053 68.3308 95.856C66.8374 97.264 66.0908 99.2053 66.0908 101.68H60.5868C60.5868 99.12 61.1628 96.88 62.3148 94.96C63.4668 92.9973 65.0881 91.4827 67.1788 90.416C69.3121 89.3493 71.7654 88.816 74.5388 88.816ZM70.5068 134.384C69.3974 134.384 68.4588 134 67.6908 133.232C66.9228 132.464 66.5388 131.525 66.5388 130.416C66.5388 129.307 66.9228 128.368 67.6908 127.6C68.4588 126.832 69.3974 126.448 70.5068 126.448C71.5734 126.448 72.4694 126.832 73.1948 127.6C73.9628 128.368 74.3468 129.307 74.3468 130.416C74.3468 131.525 73.9628 132.464 73.1948 133.232C72.4694 134 71.5734 134.384 70.5068 134.384Z" fill="black"/>
</svg>
